<?xml version="1.0" encoding="UTF-8"?>
<svg width="159px" height="39px" viewBox="0 0 159 39" version="1.1" xmlns="http://www.w3.org/2000/svg" xmlns:xlink="http://www.w3.org/1999/xlink">
    <!-- Generator: Sketch 63.1 (92452) - https://sketch.com -->
    <title>logo</title>
    <desc>Created with Sketch.</desc>
    <g id="HomeScreen" stroke="none" stroke-width="1" fill="none" fill-rule="evenodd">
        <g id="Desktop-HD-Copy" transform="translate(-51.000000, -15.000000)" fill-rule="nonzero">
            <g id="logo" transform="translate(51.000000, 15.000000)">
                <path d="M46.2978516,26.1845703 C48.7236328,26.1845703 50.4111328,24.2861328 50.4111328,21.4208984 L50.4111328,13.3964844 L47.8886719,13.3964844 L47.8886719,21.3945312 C47.8886719,22.484375 47.4316406,23.6884766 45.9462891,23.6884766 C45.1201172,23.6884766 44.6894531,23.328125 43.8632812,22.484375 L42.4306641,24.171875 C43.1513672,25.2792969 44.6367188,26.1845703 46.2978516,26.1845703 Z M56.7216797,26.2197266 C58.0927734,26.2197266 59.1210938,25.6572266 59.8242188,24.8046875 L59.8242188,26 L62.0302734,26 L62.0302734,16.9560547 L59.7011719,16.9560547 L59.7011719,17.8349609 C58.9453125,17.1054688 57.9257812,16.7275391 56.765625,16.7275391 C54.1992188,16.7275391 52.2304688,18.5732422 52.2304688,21.4736328 C52.2304688,24.4091797 54.234375,26.2197266 56.7216797,26.2197266 Z M57.0380859,24.1542969 C55.6933594,24.1542969 54.5595703,23.2314453 54.5595703,21.4736328 C54.5595703,19.7246094 55.6757812,18.8105469 57.0292969,18.8105469 C58.3828125,18.8105469 59.4990234,19.7246094 59.4990234,21.4736328 C59.4990234,23.2402344 58.3740234,24.1542969 57.0380859,24.1542969 Z M66.7412109,26 L66.7412109,21.5263672 C66.75,19.8037109 67.59375,18.9599609 68.8681641,18.9599609 C70.0898438,18.9599609 70.7490234,19.7509766 70.7490234,21.0693359 L70.7490234,26 L73.1748047,26 L73.1748047,21.4736328 C73.1923828,19.7246094 74.0712891,18.9599609 75.2929688,18.9599609 C76.5146484,18.9599609 77.1738281,19.7509766 77.1738281,21.0693359 L77.1738281,26 L79.5996094,26 L79.5996094,20.8671875 C79.5996094,18.1337891 78.1318359,16.7363281 76.0136719,16.7363281 C74.5195312,16.7363281 73.3945312,17.4394531 72.6650391,18.4853516 C72.0498047,17.3251953 70.9511719,16.7363281 69.5976562,16.7363281 C68.4023438,16.7363281 67.4443359,17.2021484 66.7412109,17.9492188 L66.7412109,17 L64.3242188,17 L64.3242188,26 L66.7412109,26 Z M89.1445312,26 L89.1445312,21.3505859 L91.5615234,21.3505859 L93.9960938,25.9824219 L96.7734375,25.9824219 L94.0488281,20.9462891 C95.4990234,20.3398438 96.3867188,19.0566406 96.3867188,17.3691406 C96.3867188,15.0048828 94.5849609,13.3964844 91.921875,13.3964844 L86.6220703,13.3964844 L86.6220703,26 L89.1445312,26 Z M91.921875,19.1181641 L89.1445312,19.1181641 L89.1445312,15.59375 L91.921875,15.59375 C93.1962891,15.59375 93.9257812,16.4111328 93.9257812,17.3515625 C93.9257812,18.2744141 93.2226562,19.1181641 91.921875,19.1181641 Z M102.574219,26.2021484 C105.351562,26.2021484 107.311523,24.2421875 107.311523,21.4736328 C107.311523,18.7138672 105.37793,16.7451172 102.574219,16.7451172 C99.7617188,16.7451172 97.8544922,18.7050781 97.8544922,21.4736328 C97.8544922,24.2509766 99.7880859,26.2021484 102.574219,26.2021484 Z M102.591797,24.1455078 C101.291016,24.1455078 100.192383,23.2226562 100.192383,21.4648438 C100.192383,19.7158203 101.273438,18.8017578 102.591797,18.8017578 C103.901367,18.8017578 104.982422,19.7158203 104.982422,21.4648438 C104.982422,23.2314453 103.892578,24.1455078 102.591797,24.1455078 Z M112.40918,26.2109375 C113.613281,26.2109375 114.597656,25.7978516 115.327148,25.0595703 L115.327148,26 L117.665039,26 L117.665039,17 L115.248047,17 L115.248047,21.4121094 C115.239258,23.2314453 114.263672,23.9873047 113.094727,23.9873047 C111.899414,23.9873047 111.240234,23.1875 111.240234,21.8779297 L111.240234,17 L108.814453,17 L108.814453,21.8779297 C108.814453,24.6992188 110.115234,26.2109375 112.40918,26.2109375 Z M122.384766,26 L122.384766,13.3964844 L119.967773,13.3964844 L119.967773,26 L122.384766,26 Z M129.161133,26.2021484 C130.901367,26.2021484 131.973633,25.7978516 132.5625,25.6044922 L132.5625,23.5478516 C132.087891,23.7060547 131.006836,24.1103516 129.530273,24.1103516 C127.719727,24.1103516 126.691406,23.5390625 126.436523,22.1416016 L133.045898,22.1416016 C133.081055,21.9658203 133.107422,21.8076172 133.107422,21.4296875 C133.107422,18.6083984 131.244141,16.7275391 128.651367,16.7275391 C125.847656,16.7275391 124.107422,18.9160156 124.107422,21.5263672 C124.107422,24.1982422 125.926758,26.2021484 129.161133,26.2021484 Z M130.989258,20.4716797 L126.480469,20.4716797 C126.761719,19.3291016 127.59668,18.7929688 128.712891,18.7929688 C129.881836,18.7929688 130.743164,19.3730469 130.989258,20.4716797 Z M138.758789,26.2021484 C139.426758,26.2021484 140.349609,26.0966797 140.850586,26.0175781 L140.850586,24.0136719 C140.507812,24.0927734 139.848633,24.1806641 139.347656,24.1806641 C137.890503,24.1806641 137.829788,23.4784088 137.827258,22.8397198 L137.827148,18.8896484 L140.323242,18.8896484 L140.323242,17 L137.827148,17 L137.827148,14.0292969 L135.436523,14.0292969 L135.436523,17 L133.933594,17 L133.933594,18.8896484 L135.436523,18.8896484 L135.436939,22.7532588 C135.444829,24.1080664 135.602637,26.2021484 138.758789,26.2021484 Z M146.484375,26.2021484 C147.152344,26.2021484 148.075195,26.0966797 148.576172,26.0175781 L148.576172,24.0136719 C148.233398,24.0927734 147.574219,24.1806641 147.073242,24.1806641 C145.616089,24.1806641 145.555374,23.4784088 145.552844,22.8397198 L145.552734,18.8896484 L148.048828,18.8896484 L148.048828,17 L145.552734,17 L145.552734,14.0292969 L143.162109,14.0292969 L143.162109,17 L141.65918,17 L141.65918,18.8896484 L143.162109,18.8896484 L143.162525,22.7532588 C143.170415,24.1080664 143.328223,26.2021484 146.484375,26.2021484 Z M154.5,26.2021484 C156.240234,26.2021484 157.3125,25.7978516 157.901367,25.6044922 L157.901367,23.5478516 C157.426758,23.7060547 156.345703,24.1103516 154.869141,24.1103516 C153.058594,24.1103516 152.030273,23.5390625 151.775391,22.1416016 L158.384766,22.1416016 C158.419922,21.9658203 158.446289,21.8076172 158.446289,21.4296875 C158.446289,18.6083984 156.583008,16.7275391 153.990234,16.7275391 C151.186523,16.7275391 149.446289,18.9160156 149.446289,21.5263672 C149.446289,24.1982422 151.265625,26.2021484 154.5,26.2021484 Z M156.328125,20.4716797 L151.819336,20.4716797 C152.100586,19.3291016 152.935547,18.7929688 154.051758,18.7929688 C155.220703,18.7929688 156.082031,19.3730469 156.328125,20.4716797 Z" id="JamRoulette" fill="#FFFFFF"></path>
                <path d="M0,12.0199571 C0,3.82820064 3.91274207,-0.377911249 11.2381973,0.0266803739 L11.4111273,0.0369496638 L17.1963424,0.0372298914 C23.2086275,0.0372298914 26.3228686,3.25639866 25.9065826,9.16163457 L25.8985729,9.27034291 L25.8985729,27.8784121 L25.9113952,27.9995 C26.6275087,35.0800653 22.9843846,38.9219318 15.6525859,38.9988228 L15.4269915,39 C7.94440179,39 4.2191671,35.152316 4.9425878,27.9995 L4.95602799,27.874902 L4.95570684,12.0199571 C4.95570684,7.55465776 7.23367284,5.10105307 11.2955825,5.25603903 L11.3961415,5.26045977 L17.1963424,5.26075285 C19.7558707,5.26075285 21.2580397,6.75707461 20.9567347,9.22528284 L20.9428783,9.33089263 L20.9426499,28.1045884 C20.9180051,31.6652028 18.9712896,33.7173124 15.5755442,33.7752175 L15.4269915,33.776477 C11.9395237,33.776477 9.93633506,31.7168059 9.91127514,28.1180018 L9.91141369,19.4997198 L12.8253039,19.4997198 L12.8252433,27.9768231 C12.8079899,29.9720743 13.5034463,30.7051145 15.4269915,30.7051145 C17.3128202,30.7051145 18.0182482,30.0005391 18.0288716,28.0795497 L18.0286792,9.07547639 L18.0752593,8.78972056 C18.1406865,8.34108957 18.0519584,8.33211536 17.1963424,8.33211536 L11.3683588,8.33211536 L11.2953092,8.33018387 C8.88178268,8.20247209 7.90238495,9.19027056 7.87040879,11.8816369 L7.86959702,12.0199571 L7.86959702,28.0536884 L7.85943181,28.1439163 C7.25374107,33.520117 9.53877392,35.9286375 15.4269915,35.9286375 C21.2563269,35.9286375 23.554181,33.5680465 23.011854,28.3043125 L22.984386,28.0536884 L22.984386,9.14332626 L22.9897757,9.07746379 C23.3263856,4.96404549 21.6565714,3.15142398 17.3512263,3.1093434 L17.1963424,3.10859241 L10.9477942,3.10859241 L10.9478187,3.08681264 L10.9344747,3.08603652 C5.48195355,2.8330205 2.9654645,5.54994801 2.91467532,11.8247558 L2.91389018,12.0199571 L2.91389018,23.7611272 L0,23.7611272 L0,12.0199571 Z" id="brand-mark" fill="#DF45FF"></path>
            </g>
        </g>
    </g>
</svg>